<svg xmlns="http://www.w3.org/2000/svg" viewBox="0 0 372.00 371.90" data-guides="{&quot;vertical&quot;:[],&quot;horizontal&quot;:[]}"><defs/><path fill="#ffffff" stroke="#ffffff" fill-opacity="1" stroke-width="1" stroke-opacity="1" id="tSvg17e5a03177b" title="Path 3" d="M185.804 92.1923C212.5426 118.9309 239.2812 145.6695 266.0198 172.4081C254.1245 172.5131 242.2292 172.6181 230.3339 172.7231C230.2819 212.102 230.2299 251.4809 230.1779 290.8598C200.2627 290.8864 170.3474 290.9131 140.4322 290.9398C140.4192 251.6245 140.4062 212.3093 140.3932 172.9941C128.6925 172.8964 116.9919 172.7987 105.2912 172.7011C132.1288 145.8648 158.9664 119.0286 185.804 92.1923M335.6646 201.747C285.8071 151.9555 235.9496 102.1639 186.092 52.3724C136.1732 102.2913 86.2543 152.2101 36.3354 202.129C61.6994 201.999 87.0633 201.869 112.4272 201.739C112.3622 241.0022 112.2972 280.2655 112.2322 319.5287C160.9671 319.4967 209.702 319.4647 258.4368 319.4327C258.4848 280.1531 258.5328 240.8736 258.5808 201.594C284.2754 201.645 309.97 201.696 335.6646 201.747"/></svg>