<?xml version="1.0" encoding="utf-8"?>
<svg data-guides='{"vertical":[],"horizontal":[]}' viewBox="0 0 372.00 371.90" xmlns="http://www.w3.org/2000/svg"><defs/><path d="M79.8784 186.3217C106.617 159.5831 133.3556 132.8445 160.0942 106.1059C160.1992 118.0012 160.3042 129.8965 160.4092 141.7918C199.788 141.8438 239.1669 141.8958 278.5458 141.9478C278.5725 171.8634 278.5992 201.779 278.6258 231.6946C239.3106 231.7072 199.9954 231.7199 160.6801 231.7326C160.5825 243.4332 160.4848 255.1338 160.3872 266.8345C133.5509 239.9969 106.7146 213.1593 79.8784 186.3217M189.4331 36.4611C139.6415 86.3186 89.85 136.1762 40.0585 186.0337C89.9773 235.9526 139.8962 285.8714 189.8151 335.7903C189.6851 310.4264 189.5551 285.0624 189.4251 259.6985C228.6883 259.7635 267.9515 259.8285 307.2148 259.8935C307.1828 211.1586 307.1508 162.4238 307.1188 113.6889C267.8392 113.6409 228.5596 113.5929 189.2801 113.5449C189.3311 87.8503 189.3821 62.1557 189.4331 36.4611" fill="white" fill-opacity="1" id="tSvgef06d476e1" stroke="none" stroke-opacity="1" stroke-width="1" title="Path 2"/></svg>