<svg xmlns="http://www.w3.org/2000/svg" viewBox="0 0 372.00 371.90" data-guides="{&quot;vertical&quot;:[],&quot;horizontal&quot;:[]}"><defs/><path fill="#ffffff" stroke="none" fill-opacity="1" stroke-width="1" stroke-opacity="1" id="tSvg150855b1a24" title="Path 4" d="M94.0102 93.7952C131.8241 93.7952 169.638 93.7952 207.4518 93.7952C199.1149 102.2838 190.7779 110.7725 182.4409 119.2611C210.2495 147.1447 238.0581 175.0283 265.8667 202.9119C244.7321 224.0845 223.5975 245.2571 202.4629 266.4297C174.6539 238.6391 146.845 210.8485 119.0361 183.058C110.6931 191.2596 102.3501 199.4612 94.0072 207.6629C94.0082 169.707 94.0092 131.7511 94.0102 93.7952M277.3957 65.3123C206.9168 65.3593 136.438 65.4063 65.9592 65.4533C65.9592 136.0491 65.9592 206.6449 65.9592 277.2407C83.8188 259.2137 101.6785 241.1868 119.5381 223.1598C147.2633 250.9694 174.9886 278.779 202.7139 306.5886C237.1561 272.105 271.5983 237.6215 306.0406 203.1379C278.2933 175.329 250.5461 147.5201 222.7988 119.7111C240.9978 101.5782 259.1967 83.4452 277.3957 65.3123"/></svg>